<svg width="1041" height="469" viewBox="0 0 1041 469" fill="none" xmlns="http://www.w3.org/2000/svg">
<path d="M8.7259 462.987V425.862H42.525V76.3752L0.435547 57.1727V30.9292L119.689 0.205078H143.285V203.112L144.56 203.752C171.982 167.907 203.23 141.024 249.784 141.024C303.352 141.024 339.702 181.989 339.702 245.998V425.862H367.762V462.987H212.796V425.862H238.943V239.597C238.943 214.634 229.377 208.233 207.694 208.233C184.736 208.233 163.054 215.274 143.285 229.996V425.862H169.431V462.987H8.7259Z" fill="#272727"/>
<path d="M450.701 468.107C396.495 468.107 360.782 427.782 360.782 363.133V188.39H326.345V151.265H461.542V375.935C461.542 400.258 471.108 407.299 492.152 407.299C517.023 407.299 536.155 395.778 557.2 379.136V188.39H520.85V151.265H657.959V404.099L698.136 421.381V446.345L584.622 466.187H561.664V403.459L560.388 402.819C530.416 439.944 497.892 468.107 450.701 468.107Z" fill="#272727"/>
<path d="M801.712 468.107C732.2 468.107 671.617 410.5 671.617 302.325C671.617 194.791 743.041 141.024 815.741 141.024C852.091 141.024 878.876 155.746 899.283 177.509V76.3752L854.642 57.1727V30.9292L975.809 0.205078H999.405V404.099L1040.22 421.381V446.345L926.705 466.187H903.109V407.299L901.834 406.659C875.049 444.424 845.714 468.107 801.712 468.107ZM834.235 420.101C862.295 420.101 882.702 398.338 899.283 376.575V210.153C883.977 198.632 866.759 190.31 843.801 190.31C824.67 190.31 811.277 197.351 802.349 208.233C790.87 222.315 784.493 258.8 784.493 309.366C784.493 362.493 791.508 395.778 802.987 407.939C811.915 416.901 821.481 420.101 834.235 420.101Z" fill="#272727"/>
</svg>
