<svg width="81" height="45" viewBox="0 0 81 45" fill="none" xmlns="http://www.w3.org/2000/svg">
<path d="M2.06847 35V8.10987H7.52172V18.6403H18.0897V8.10987H23.543V35H18.0897V23.1533H7.52172V35H2.06847Z" fill="white"/>
<path d="M56.736 35V8.10987H67.2287C74.412 8.10987 79.0378 13.9016 79.0378 21.837C79.0378 26.1996 77.5711 30.0357 74.7505 32.405C72.7572 34.0598 70.1622 35 66.7774 35H56.736ZM62.1892 30.2989H66.4014C71.5161 30.2989 73.5094 27.1774 73.5094 21.837C73.5094 16.4966 71.1776 12.7733 66.5518 12.7733H62.1892V30.2989Z" fill="white"/>
<path fill-rule="evenodd" clip-rule="evenodd" d="M53.8425 7.95166H27.0059V34.7883H53.8425V7.95166ZM35.7307 12.5521H32.2439V23.0882C32.2439 24.2924 32.4384 25.3752 32.8273 26.3369C33.2206 27.2943 33.7752 28.1096 34.4911 28.7828C35.2071 29.4517 36.0666 29.966 37.0698 30.3256C38.0774 30.6851 39.1955 30.8649 40.424 30.8649C41.2416 30.8649 42.0106 30.7834 42.7309 30.6203C43.4557 30.4615 44.1208 30.2273 44.7262 29.9179C45.3317 29.6085 45.873 29.2301 46.3503 28.7828C46.832 28.3354 47.2386 27.8232 47.57 27.2463C47.9059 26.6693 48.1622 26.0338 48.339 25.3397C48.5158 24.6415 48.6041 23.891 48.6041 23.0882V12.5521H45.1173V22.9503C45.1173 23.7656 45.0135 24.4847 44.8058 25.1077C44.5981 25.7264 44.2931 26.247 43.891 26.6693C43.4932 27.0874 43.0027 27.4051 42.4193 27.6225C41.8404 27.8358 41.1753 27.9424 40.424 27.9424C39.6728 27.9424 39.0054 27.8358 38.4221 27.6225C37.8387 27.4051 37.3482 27.0874 36.9505 26.6693C36.5527 26.247 36.25 25.7264 36.0423 25.1077C35.8346 24.4847 35.7307 23.7656 35.7307 22.9503V12.5521Z" fill="white"/>
</svg>
