<?xml version="1.0" encoding="UTF-8" standalone="no"?>
<svg
   width="738.01801"
   height="332.108"
   viewBox="0 0 738.01801 332.108"
   fill="none"
   version="1.1"
   id="svg3"
   xmlns="http://www.w3.org/2000/svg"
   xmlns:svg="http://www.w3.org/2000/svg">
  <defs
     id="defs3" />
  <path
     d="m 5.884,328.474 v -26.351 h 23.99 V 54.064 L 0,40.435 V 21.808 L 84.643,0 h 16.748 v 144.02 l 0.905,0.454 c 19.464,-25.442 41.643,-44.523 74.686,-44.523 38.022,0 63.822,29.076 63.822,74.508 v 127.664 h 19.917 v 26.351 H 150.729 v -26.351 h 18.558 V 169.916 c 0,-17.718 -6.789,-22.262 -22.179,-22.262 -16.295,0 -31.685,4.998 -45.717,15.447 v 139.022 h 18.558 v 26.351 z"
     fill="#272727"
     id="path1" />
  <path
     d="m 319.589,332.108 c -38.474,0 -63.822,-28.622 -63.822,-74.508 V 133.571 H 231.324 V 107.22 h 95.96 v 159.466 c 0,17.265 6.79,22.262 21.727,22.262 17.653,0 31.232,-8.178 46.169,-19.99 V 133.571 h -25.8 V 107.22 h 97.317 v 179.456 l 28.517,12.267 v 17.719 l -80.57,14.083 h -16.295 v -44.523 l -0.906,-0.454 c -21.274,26.35 -44.359,46.34 -77.854,46.34 z"
     fill="#272727"
     id="path2" />
  <path
     d="m 568.73,332.108 c -49.338,0 -92.339,-40.888 -92.339,-117.668 0,-76.326 50.696,-114.489 102.297,-114.489 25.8,0 44.811,10.449 59.296,25.896 V 54.064 L 606.299,40.435 V 21.808 L 692.301,0 h 16.748 v 286.676 l 28.969,12.267 v 17.719 l -80.571,14.083 H 640.7 v -41.797 l -0.906,-0.454 c -19.01,26.805 -39.832,43.614 -71.064,43.614 z m 23.085,-34.074 c 19.916,0 34.4,-15.446 46.169,-30.893 V 149.017 c -10.863,-8.177 -23.085,-14.084 -39.38,-14.084 -13.579,0 -23.085,4.998 -29.422,12.721 -8.147,9.995 -12.673,35.892 -12.673,71.783 0,37.709 4.979,61.333 13.126,69.965 6.337,6.361 13.127,8.632 22.18,8.632 z"
     fill="#272727"
     id="path3" />
</svg>
